<svg xmlns="http://www.w3.org/2000/svg" xmlns:xlink="http://www.w3.org/1999/xlink" width="1080" zoomAndPan="magnify" viewBox="0 0 810 809.999993" height="1080" preserveAspectRatio="xMidYMid meet" version="1.0"><defs><clipPath id="id1"><path d="M 141 178 L 669.410156 178 L 669.410156 777.714844 L 141 777.714844 Z M 141 178 " clip-rule="nonzero"/></clipPath><clipPath id="id2"><path d="M 265 32.214844 L 346 32.214844 L 346 133 L 265 133 Z M 265 32.214844 " clip-rule="nonzero"/></clipPath><clipPath id="id3"><path d="M 361 32.214844 L 442 32.214844 L 442 135 L 361 135 Z M 361 32.214844 " clip-rule="nonzero"/></clipPath><clipPath id="id4"><path d="M 457 32.214844 L 538 32.214844 L 538 135 L 457 135 Z M 457 32.214844 " clip-rule="nonzero"/></clipPath></defs><g clip-path="url(#id1)"><path fill="#264de4" d="M 404.808594 777.691406 L 189.074219 717.820312 L 141 178.726562 L 669.257812 178.71875 L 621.152344 717.730469 L 404.816406 777.683594 Z M 404.808594 777.691406 " fill-opacity="1" fill-rule="nonzero"/></g><path fill="#2965f1" d="M 579.953125 683.414062 L 621.078125 222.800781 L 405.140625 222.796875 L 405.140625 731.851562 L 579.953125 683.40625 Z M 579.953125 683.414062 " fill-opacity="1" fill-rule="nonzero"/><path fill="#ebebeb" d="M 251.214844 422.746094 L 257.144531 488.851562 L 405.140625 488.851562 L 405.140625 422.746094 Z M 251.214844 422.746094 " fill-opacity="1" fill-rule="nonzero"/><path fill="#ebebeb" d="M 239.304688 288.90625 L 245.316406 355.027344 L 405.140625 355.027344 L 405.140625 288.90625 Z M 239.304688 288.90625 " fill-opacity="1" fill-rule="nonzero"/><path fill="#ebebeb" d="M 405.140625 594.453125 L 404.847656 594.539062 L 331.195312 574.640625 L 326.488281 521.914062 L 260.097656 521.914062 L 269.363281 625.734375 L 404.828125 663.332031 L 405.140625 663.25 Z M 405.140625 594.453125 " fill-opacity="1" fill-rule="nonzero"/><g clip-path="url(#id2)"><path fill="#000000" d="M 265.328125 32.214844 L 345.429688 32.214844 L 345.429688 65.703125 L 298.824219 65.703125 L 298.824219 99.191406 L 345.429688 99.191406 L 345.429688 132.675781 L 265.328125 132.675781 Z M 265.328125 32.214844 " fill-opacity="1" fill-rule="nonzero"/></g><g clip-path="url(#id3)"><path fill="#000000" d="M 361.445312 32.214844 L 441.542969 32.214844 L 441.542969 61.335938 L 394.949219 61.335938 L 394.949219 67.15625 L 441.542969 67.15625 L 441.542969 134.132812 L 361.445312 134.132812 L 361.445312 103.558594 L 408.058594 103.558594 L 408.058594 97.734375 L 361.445312 97.734375 Z M 361.445312 32.214844 " fill-opacity="1" fill-rule="nonzero"/></g><g clip-path="url(#id4)"><path fill="#000000" d="M 457.570312 32.214844 L 537.667969 32.214844 L 537.667969 61.335938 L 491.054688 61.335938 L 491.054688 67.15625 L 537.667969 67.15625 L 537.667969 134.132812 L 457.570312 134.132812 L 457.570312 103.558594 L 504.164062 103.558594 L 504.164062 97.734375 L 457.570312 97.734375 Z M 457.570312 32.214844 " fill-opacity="1" fill-rule="nonzero"/></g><path fill="#ffffff" d="M 558.644531 422.746094 L 570.574219 288.90625 L 404.910156 288.90625 L 404.910156 355.027344 L 498.097656 355.027344 L 492.089844 422.746094 L 404.910156 422.746094 L 404.910156 488.851562 L 486.355469 488.851562 L 478.671875 574.601562 L 404.910156 594.515625 L 404.910156 663.289062 L 540.484375 625.734375 L 541.480469 614.558594 L 557.03125 440.488281 Z M 558.644531 422.746094 " fill-opacity="1" fill-rule="nonzero"/></svg>