<svg xmlns="http://www.w3.org/2000/svg" xmlns:xlink="http://www.w3.org/1999/xlink" width="1080" zoomAndPan="magnify" viewBox="0 0 810 809.999993" height="1080" preserveAspectRatio="xMidYMid meet" version="1.0"><defs><clipPath id="id1"><path d="M 131.289062 170 L 678.789062 170 L 678.789062 790.75 L 131.289062 790.75 Z M 131.289062 170 " clip-rule="nonzero"/></clipPath></defs><g clip-path="url(#id1)"><path fill="#e44d26" d="M 678.636719 170.660156 L 628.804688 728.652344 L 404.804688 790.71875 L 181.425781 728.738281 L 131.648438 170.660156 L 678.625 170.652344 L 678.644531 170.652344 Z M 678.636719 170.660156 " fill-opacity="1" fill-rule="nonzero"/></g><path fill="#f16529" d="M 405.148438 743.277344 L 586.15625 693.128906 L 628.742188 216.296875 L 405.148438 216.292969 Z M 405.148438 743.277344 " fill-opacity="1" fill-rule="nonzero"/><path fill="#ebebeb" d="M 308.273438 353.183594 L 405.148438 353.183594 L 405.148438 284.730469 L 233.4375 284.730469 L 235.074219 303.097656 L 251.90625 491.714844 L 405.148438 491.714844 L 405.148438 423.285156 L 314.535156 423.285156 Z M 308.273438 353.183594 " fill-opacity="1" fill-rule="nonzero"/><path fill="#ebebeb" d="M 323.707031 525.941406 L 254.964844 525.941406 L 264.558594 633.421875 L 404.824219 672.339844 L 405.148438 672.253906 L 405.148438 601.039062 L 404.847656 601.125 L 328.585938 580.527344 Z M 323.707031 525.941406 " fill-opacity="1" fill-rule="nonzero"/><path fill="#000000" d="M 182.542969 19 L 217.34375 19 L 217.34375 53.363281 L 249.175781 53.363281 L 249.175781 19 L 283.976562 19 L 283.976562 123.066406 L 249.175781 123.066406 L 249.175781 88.21875 L 217.34375 88.21875 L 217.34375 123.066406 L 182.542969 123.066406 Z M 182.542969 19 " fill-opacity="1" fill-rule="nonzero"/><path fill="#000000" d="M 329.738281 53.511719 L 299.105469 53.511719 L 299.105469 19 L 395.199219 19 L 395.199219 53.511719 L 364.539062 53.511719 L 364.539062 123.066406 L 329.742188 123.066406 L 329.742188 53.511719 Z M 329.738281 53.511719 " fill-opacity="1" fill-rule="nonzero"/><path fill="#000000" d="M 410.445312 19 L 446.722656 19 L 469.042969 55.566406 L 491.34375 19 L 527.644531 19 L 527.644531 123.066406 L 492.992188 123.066406 L 492.992188 71.484375 L 469.042969 108.488281 L 468.445312 108.488281 L 444.492188 71.484375 L 444.492188 123.066406 L 410.445312 123.066406 Z M 410.445312 19 " fill-opacity="1" fill-rule="nonzero"/><path fill="#000000" d="M 544.96875 19 L 579.769531 19 L 579.769531 88.667969 L 628.71875 88.667969 L 628.71875 123.066406 L 544.96875 123.066406 Z M 544.96875 19 " fill-opacity="1" fill-rule="nonzero"/><path fill="#ffffff" d="M 404.910156 491.714844 L 489.242188 491.714844 L 481.285156 580.484375 L 404.910156 601.101562 L 404.910156 672.296875 L 545.289062 633.421875 L 546.320312 621.847656 L 562.421875 441.652344 L 564.09375 423.285156 L 404.910156 423.285156 Z M 404.910156 491.714844 " fill-opacity="1" fill-rule="nonzero"/><path fill="#ffffff" d="M 404.910156 353.011719 L 404.910156 353.183594 L 570.3125 353.183594 L 571.683594 337.792969 L 574.816406 303.097656 L 576.445312 284.730469 L 404.910156 284.730469 Z M 404.910156 353.011719 " fill-opacity="1" fill-rule="nonzero"/></svg>