<svg xmlns="http://www.w3.org/2000/svg" xmlns:xlink="http://www.w3.org/1999/xlink" width="1080" zoomAndPan="magnify" viewBox="0 0 810 809.999993" height="1080" preserveAspectRatio="xMidYMid meet" version="1.0"><path fill="#00d8ff" d="M 665.4375 278.332031 C 657.070312 275.449219 648.386719 272.71875 639.417969 270.136719 C 640.902344 264.136719 642.261719 258.214844 643.460938 252.398438 C 663.132812 156.828125 650.28125 79.835938 606.296875 54.484375 C 564.109375 30.183594 495.148438 55.523438 425.492188 116.113281 C 418.796875 121.9375 412.074219 128.105469 405.378906 134.566406 C 400.894531 130.292969 396.441406 126.160156 391.992188 122.207031 C 318.988281 57.425781 245.816406 30.121094 201.882812 55.542969 C 159.75 79.921875 147.273438 152.300781 165.007812 242.871094 C 166.71875 251.621094 168.71875 260.554688 170.980469 269.636719 C 160.628906 272.578125 150.628906 275.707031 141.066406 279.039062 C 55.484375 308.863281 0.828125 355.601562 0.828125 404.089844 C 0.828125 454.144531 59.503906 504.390625 148.640625 534.847656 C 155.671875 537.246094 162.972656 539.515625 170.496094 541.664062 C 168.054688 551.476562 165.933594 561.105469 164.148438 570.507812 C 147.242188 659.511719 160.445312 730.175781 202.460938 754.382812 C 245.859375 779.410156 318.703125 753.6875 389.621094 691.734375 C 395.242188 686.84375 400.863281 681.632812 406.484375 676.207031 C 413.808594 683.210938 421.105469 689.871094 428.335938 696.121094 C 497.042969 755.203125 564.902344 779.0625 606.863281 754.792969 C 650.21875 729.703125 664.332031 653.765625 646.019531 561.417969 C 644.628906 554.351562 642.988281 547.15625 641.1875 539.832031 C 646.304688 538.316406 651.324219 536.738281 656.21875 535.128906 C 748.894531 504.421875 809.171875 454.839844 809.171875 404.089844 C 809.171875 355.425781 752.746094 308.371094 665.4375 278.332031 Z M 645.355469 502.371094 C 640.933594 503.820312 636.386719 505.242188 631.777344 506.597656 C 621.546875 474.25 607.75 439.816406 590.824219 404.246094 C 606.960938 369.53125 620.222656 335.554688 630.167969 303.390625 C 638.441406 305.785156 646.460938 308.304688 654.199219 310.96875 C 729 336.707031 774.628906 374.769531 774.628906 404.089844 C 774.628906 435.304688 725.371094 475.859375 645.355469 502.371094 Z M 612.136719 568.109375 C 620.253906 608.949219 621.390625 645.875 616.023438 674.753906 C 611.222656 700.695312 601.527344 717.992188 589.5625 724.902344 C 564.078125 739.644531 509.609375 720.484375 450.878906 669.957031 C 444.121094 664.148438 437.332031 657.964844 430.542969 651.429688 C 453.3125 626.53125 476.078125 597.589844 498.308594 565.429688 C 537.367188 561.988281 574.277344 556.308594 607.78125 548.574219 C 609.421875 555.234375 610.875 561.734375 612.136719 568.109375 Z M 276.421875 722.347656 C 251.535156 731.152344 231.710938 731.40625 219.726562 724.492188 C 194.230469 709.785156 183.628906 653.039062 198.089844 576.949219 C 199.746094 568.238281 201.71875 559.273438 203.992188 550.121094 C 237.101562 557.441406 273.75 562.714844 312.921875 565.871094 C 335.292969 597.335938 358.722656 626.246094 382.308594 651.558594 C 377.164062 656.542969 372.015625 661.277344 366.898438 665.726562 C 335.546875 693.152344 304.121094 712.59375 276.421875 722.347656 Z M 159.820312 502.179688 C 120.40625 488.703125 87.855469 471.21875 65.542969 452.09375 C 45.492188 434.957031 35.371094 417.914062 35.371094 404.089844 C 35.371094 374.675781 79.253906 337.136719 152.441406 311.632812 C 161.324219 308.535156 170.621094 305.621094 180.265625 302.882812 C 190.382812 335.765625 203.652344 370.164062 219.664062 404.910156 C 203.445312 440.195312 189.988281 475.132812 179.773438 508.429688 C 172.894531 506.441406 166.230469 504.359375 159.820312 502.179688 Z M 198.90625 236.242188 C 183.714844 158.644531 193.804688 100.105469 219.195312 85.414062 C 246.234375 69.769531 306.035156 92.078125 369.046875 148.015625 C 373.089844 151.59375 377.132812 155.332031 381.203125 159.203125 C 357.710938 184.410156 334.503906 213.105469 312.332031 244.378906 C 274.3125 247.902344 237.921875 253.558594 204.464844 261.136719 C 202.359375 252.679688 200.5 244.367188 198.90625 236.242188 Z M 547.570312 322.300781 C 539.578125 308.492188 531.371094 295.011719 523.003906 281.894531 C 548.800781 285.152344 573.492188 289.480469 596.699219 294.773438 C 589.753906 317.089844 581.070312 340.421875 570.839844 364.355469 C 563.515625 350.429688 555.746094 336.402344 547.570312 322.300781 Z M 405.382812 183.871094 C 421.328125 201.121094 437.273438 220.375 452.96875 241.269531 C 437.148438 240.523438 421.136719 240.136719 405.003906 240.136719 C 389.027344 240.136719 373.144531 240.515625 357.417969 241.25 C 373.113281 220.550781 389.214844 201.320312 405.382812 183.871094 Z M 262.285156 322.539062 C 254.296875 336.386719 246.683594 350.339844 239.464844 364.324219 C 229.414062 340.484375 220.808594 317.042969 213.78125 294.40625 C 236.84375 289.25 261.441406 285.03125 287.066406 281.832031 C 278.574219 295.070312 270.296875 308.652344 262.285156 322.539062 Z M 287.800781 528.785156 C 261.324219 525.851562 236.363281 521.84375 213.304688 516.824219 C 220.445312 493.785156 229.234375 469.863281 239.507812 445.496094 C 246.742188 459.480469 254.382812 473.429688 262.421875 487.316406 L 262.425781 487.316406 C 270.613281 501.453125 279.097656 515.277344 287.800781 528.785156 Z M 406.328125 626.71875 C 389.972656 609.078125 373.648438 589.539062 357.703125 568.550781 C 373.175781 569.152344 388.960938 569.46875 405.003906 569.46875 C 421.484375 569.46875 437.777344 569.089844 453.789062 568.394531 C 438.0625 589.761719 422.148438 609.328125 406.328125 626.71875 Z M 571.15625 444.265625 C 581.953125 468.882812 591.082031 492.679688 598.3125 515.339844 C 574.882812 520.675781 549.558594 524.96875 522.90625 528.1875 C 531.308594 514.898438 539.578125 501.171875 547.726562 487.0625 C 555.96875 472.796875 563.765625 458.5 571.15625 444.265625 Z M 517.792969 469.832031 C 505.160156 491.734375 492.183594 512.628906 479.015625 532.351562 C 455.050781 534.058594 430.265625 534.941406 405.003906 534.941406 C 379.835938 534.941406 355.367188 534.183594 331.808594 532.636719 C 318.105469 512.660156 304.859375 491.703125 292.304688 470.019531 L 292.308594 470.019531 C 279.785156 448.402344 268.261719 426.59375 257.816406 404.910156 C 268.257812 383.195312 279.753906 361.355469 292.203125 339.777344 L 292.199219 339.78125 C 304.683594 318.148438 317.820312 297.28125 331.398438 277.414062 C 355.429688 275.597656 380.089844 274.648438 405.003906 274.648438 C 430.042969 274.648438 454.703125 275.605469 478.734375 277.4375 C 492.121094 297.160156 505.160156 317.953125 517.699219 339.597656 C 530.359375 361.484375 542.011719 383.164062 552.527344 404.4375 C 542.042969 426.054688 530.421875 447.960938 517.792969 469.832031 Z M 589.027344 84.378906 C 616.121094 99.984375 626.632812 162.90625 609.617188 245.421875 C 608.542969 250.6875 607.308594 256.046875 605.984375 261.484375 C 572.449219 253.746094 536.042969 247.996094 497.929688 244.417969 C 475.703125 212.804688 452.683594 184.0625 429.570312 159.179688 C 435.789062 153.207031 442.011719 147.511719 448.167969 142.136719 C 507.847656 90.230469 563.640625 69.734375 589.027344 84.378906 Z M 405.003906 331.925781 C 444.851562 331.925781 477.1875 364.21875 477.1875 404.082031 C 477.1875 443.910156 444.851562 476.226562 405.003906 476.226562 C 365.152344 476.226562 332.820312 443.910156 332.820312 404.082031 C 332.820312 364.21875 365.152344 331.925781 405.003906 331.925781 Z M 405.003906 331.925781 " fill-opacity="1" fill-rule="nonzero"/></svg>